<?xml version="1.0" encoding="iso-8859-1"?>
<!-- Generator: Adobe Illustrator 19.0.0, SVG Export Plug-In . SVG Version: 6.00 Build 0)  -->
<svg version="1.1" id="Capa_1" xmlns="http://www.w3.org/2000/svg" xmlns:xlink="http://www.w3.org/1999/xlink" x="0px" y="0px"
	 viewBox="0 0 480 480" style="enable-background:new 0 0 480 480;" xml:space="preserve">
<path style="fill:#C9F4F3;" d="M251.32,217.88c-0.008-0.016-0.024-0.032-0.032-0.04C251.296,217.848,251.312,217.864,251.32,217.88z
	"/>
<path style="fill:#406AF2;" d="M96,328h112v-32H8v64h200v-32H96z M32,328h16H32z M64,328h16H64z"/>
<path style="fill:#4BDDDD;" d="M8,296h200v-64c0-2.016,0.32-3.936,0.784-5.8l0,0C175.616,213.592,152,181.592,152,144
	c0-48.6,39.4-88,88-88s88,39.4,88,88c0,43.184-31.128,79.024-72.152,86.496C255.88,231.008,256,231.488,256,232v72
	c0-13.256,10.744-24,24-24s24,10.744,24,24c0-13.256,10.744-24,24-24s24,10.744,24,24c0-13.256,10.744-24,24-24s24,10.744,24,24v56
	h72v-64h-72h72V8H8V296z M448,328h-16H448z M392,104l40,40l-40,40l40-40L392,104z M88,104l-40,40l40,40l-40-40L88,104z"/>
<rect x="232" y="8" style="fill:#42C2C2;" width="240" height="288"/>
<g>
	<path style="fill:#C9F4F3;" d="M213.824,216.488c0.224-0.256,0.416-0.536,0.648-0.784
		C214.24,215.952,214.048,216.232,213.824,216.488z"/>
	<path style="fill:#C9F4F3;" d="M247.952,214.184c0.168,0.144,0.352,0.272,0.512,0.416
		C248.296,214.456,248.112,214.336,247.952,214.184z"/>
	<path style="fill:#C9F4F3;" d="M217.736,212.792c-0.48,0.36-0.928,0.744-1.376,1.136
		C216.816,213.536,217.264,213.152,217.736,212.792z"/>
	<path style="fill:#C9F4F3;" d="M221.576,210.472c-0.68,0.336-1.344,0.68-1.984,1.08
		C220.232,211.16,220.896,210.808,221.576,210.472z"/>
	<path style="fill:#C9F4F3;" d="M232,208c-1.544,0-3.04,0.176-4.496,0.456C228.96,208.176,230.456,208,232,208z"/>
	<path style="fill:#C9F4F3;" d="M236.736,208.48c-1.528-0.312-3.112-0.48-4.736-0.48C233.624,208,235.2,208.168,236.736,208.48z"/>
	<path style="fill:#C9F4F3;" d="M226,208.848c-0.904,0.24-1.8,0.488-2.664,0.824C224.192,209.344,225.088,209.088,226,208.848z"/>
	<path style="fill:#C9F4F3;" d="M245.04,211.896c-0.424-0.272-0.888-0.472-1.328-0.72
		C244.152,211.424,244.616,211.616,245.04,211.896z"/>
	<path style="fill:#C9F4F3;" d="M241.112,209.816c-0.776-0.32-1.616-0.512-2.432-0.752
		C239.496,209.296,240.336,209.496,241.112,209.816z"/>
	<path style="fill:#C9F4F3;" d="M227.504,208.456c-0.52,0.096-1,0.264-1.504,0.392C226.496,208.72,226.984,208.552,227.504,208.456z
		"/>
	<path style="fill:#C9F4F3;" d="M238.68,209.064c-0.656-0.192-1.272-0.448-1.944-0.584
		C237.408,208.616,238.032,208.872,238.68,209.064z"/>
	<path style="fill:#C9F4F3;" d="M255.848,230.496L255.848,230.496c-0.296-4.712-1.904-9.04-4.528-12.624
		C253.92,221.464,255.552,225.8,255.848,230.496z"/>
	<path style="fill:#C9F4F3;" d="M223.336,209.68c-0.608,0.232-1.184,0.52-1.76,0.8C222.152,210.192,222.728,209.912,223.336,209.68z
		"/>
	<path style="fill:#C9F4F3;" d="M247.952,214.184c-0.92-0.824-1.872-1.616-2.912-2.296
		C246.08,212.576,247.032,213.36,247.952,214.184z"/>
	<path style="fill:#C9F4F3;" d="M243.712,211.176c-0.856-0.48-1.688-0.984-2.6-1.36
		C242.024,210.192,242.864,210.688,243.712,211.176z"/>
	<path style="fill:#C9F4F3;" d="M214.472,215.704c0.584-0.64,1.24-1.208,1.896-1.776
		C215.712,214.496,215.064,215.064,214.472,215.704z"/>
</g>
<path style="fill:#FFC931;" d="M214.472,215.704c0.592-0.64,1.24-1.208,1.896-1.776c0.448-0.392,0.896-0.776,1.376-1.136
	c0.6-0.448,1.208-0.856,1.848-1.24c0.64-0.392,1.304-0.744,1.984-1.08c0.584-0.28,1.152-0.56,1.76-0.8
	c0.864-0.336,1.752-0.592,2.664-0.824c0.504-0.128,0.992-0.296,1.504-0.392c1.456-0.28,2.952-0.456,4.496-0.456
	c1.624,0,3.208,0.168,4.736,0.48c0.672,0.136,1.296,0.392,1.944,0.584c0.816,0.24,1.648,0.432,2.432,0.752
	c0.912,0.376,1.752,0.88,2.6,1.36c0.44,0.248,0.912,0.448,1.328,0.72c1.04,0.68,1.992,1.472,2.912,2.296
	c0.16,0.144,0.352,0.264,0.512,0.416c1.04,0.984,1.976,2.072,2.824,3.224c0.008,0.016,0.024,0.024,0.032,0.04
	c2.624,3.584,4.232,7.912,4.528,12.624C296.872,223.024,328,187.184,328,144c0-48.6-39.4-88-88-88s-88,39.4-88,88
	c0,37.592,23.616,69.592,56.784,82.2l0,0c0.912-3.656,2.672-6.936,5.04-9.712C214.048,216.232,214.24,215.952,214.472,215.704z
	 M216,112l72,32l-72,32V112z"/>
<g>
	<path style="fill:#C9F4F3;" d="M248.456,214.608c1.032,0.992,1.984,2.064,2.824,3.224
		C250.432,216.68,249.496,215.592,248.456,214.608z"/>
	<path style="fill:#C9F4F3;" d="M208.784,226.2c0.912-3.648,2.688-6.936,5.04-9.712C211.456,219.264,209.704,222.544,208.784,226.2z
		"/>
	<path style="fill:#C9F4F3;" d="M219.592,211.552c-0.64,0.392-1.248,0.8-1.848,1.24
		C218.336,212.344,218.952,211.944,219.592,211.552z"/>
</g>
<polygon style="fill:#B139D8;" points="216,112 216,176 288,144 "/>
<rect x="400" y="296" style="fill:#406AF2;" width="72" height="64"/>
<path style="fill:#B139D8;" d="M376,280c-13.256,0-24,10.744-24,24v80v-80c0-13.256-10.744-24-24-24s-24,10.744-24,24v80v-80
	c0-13.256-10.744-24-24-24s-24,10.744-24,24v80v-80v-72c0-0.512-0.12-0.992-0.152-1.504l0,0c-0.296-4.704-1.928-9.04-4.528-12.624
	c-0.008-0.016-0.024-0.032-0.032-0.04c-0.848-1.16-1.792-2.24-2.824-3.224c-0.16-0.152-0.344-0.272-0.512-0.416
	c-0.92-0.832-1.872-1.616-2.912-2.296c-0.424-0.272-0.888-0.472-1.328-0.72c-0.848-0.48-1.688-0.984-2.6-1.36
	c-0.776-0.32-1.616-0.52-2.432-0.752c-0.648-0.192-1.272-0.448-1.944-0.584C235.2,208.168,233.624,208,232,208
	c-1.544,0-3.04,0.176-4.496,0.456c-0.52,0.096-1.008,0.264-1.504,0.392c-0.904,0.232-1.8,0.496-2.664,0.824
	c-0.6,0.24-1.184,0.512-1.76,0.8c-0.68,0.328-1.344,0.688-1.984,1.08c-0.632,0.392-1.256,0.792-1.848,1.24
	c-0.48,0.352-0.92,0.744-1.376,1.136c-0.656,0.568-1.304,1.144-1.896,1.776c-0.232,0.248-0.424,0.528-0.648,0.784
	c-2.352,2.776-4.128,6.064-5.04,9.712c-0.464,1.864-0.784,3.784-0.784,5.8v64v32v32v56v-56l-40,40v72h232v-88v-24v-56
	C400,290.744,389.256,280,376,280z"/>
<g>
	<path style="fill:#2A0E54;" d="M472,0H8C3.576,0,0,3.576,0,8v288v64c0,4.424,3.576,8,8,8h180.688l-26.344,26.344
		C160.84,395.84,160,397.872,160,400v72c0,4.424,3.576,8,8,8h232c4.424,0,8-3.576,8-8V368h64c4.424,0,8-3.576,8-8v-64V8
		C480,3.576,476.424,0,472,0z M16,304h184v16H96v16h104v16H16V304z M204.984,215.016c-0.136,0.216-0.296,0.4-0.424,0.616
		C177.624,202.264,160,174.376,160,144c0-44.112,35.888-80,80-80s80,35.888,80,80c0,36.048-24.008,67.248-58.096,76.888
		c-0.008-0.024-0.016-0.04-0.024-0.064c-0.464-1.232-1.024-2.392-1.632-3.552c-0.24-0.472-0.488-0.928-0.752-1.384
		c-0.608-1.04-1.248-2.04-1.968-2.992c-0.376-0.504-0.792-0.968-1.2-1.448c-0.736-0.872-1.456-1.752-2.28-2.544
		c-1.16-1.112-2.408-2.144-3.72-3.072c-0.68-0.48-1.416-0.856-2.136-1.28c-0.912-0.544-1.832-1.072-2.808-1.528
		c-0.712-0.328-1.432-0.616-2.168-0.896c-1.136-0.432-2.304-0.784-3.496-1.088c-0.64-0.16-1.264-0.344-1.92-0.464
		c-1.888-0.344-3.816-0.576-5.8-0.576c-1.96,0-3.856,0.24-5.728,0.576c-0.456,0.08-0.904,0.168-1.36,0.272
		c-1.808,0.408-3.576,0.928-5.256,1.632c-0.16,0.072-0.312,0.16-0.472,0.232c-1.528,0.672-2.976,1.48-4.368,2.376
		c-0.416,0.264-0.824,0.528-1.224,0.816c-1.424,1.008-2.784,2.096-4.032,3.328c-0.272,0.272-0.504,0.584-0.768,0.864
		c-0.928,0.984-1.792,2.032-2.592,3.136C205.776,213.816,205.368,214.4,204.984,215.016z M392,464H176v-60.688l24-24V416h16V232
		c0-1.288,0.192-2.52,0.48-3.712c0.016-0.056,0.064-0.096,0.072-0.152c0.64-2.56,1.88-4.832,3.528-6.704
		c0.096-0.104,0.176-0.224,0.272-0.328c0.4-0.432,0.848-0.808,1.288-1.192c0.296-0.256,0.592-0.512,0.904-0.744
		c0.392-0.296,0.808-0.56,1.224-0.808c0.424-0.256,0.864-0.496,1.312-0.712c0.384-0.192,0.776-0.368,1.184-0.528
		c0.56-0.216,1.144-0.384,1.736-0.544c0.344-0.088,0.68-0.2,1.024-0.264C230,216.12,230.984,216,232,216
		c1.064,0,2.104,0.112,3.112,0.312c0.672,0.136,1.304,0.368,1.944,0.584c0.304,0.104,0.624,0.168,0.928,0.288
		c0.864,0.352,1.688,0.792,2.464,1.288c0.04,0.024,0.08,0.04,0.12,0.064c4.128,2.672,6.968,7.208,7.296,12.464
		c0,0.064,0.04,0.112,0.048,0.176c0.016,0.28,0.088,0.544,0.088,0.824v72v80h16v-80c0-8.824,7.176-16,16-16s16,7.176,16,16v80h16
		v-80c0-8.824,7.176-16,16-16s16,7.176,16,16v80h16v-80c0-8.824,7.176-16,16-16s16,7.176,16,16V464z M376,272
		c-9.608,0-18.128,4.336-24,11.056c-5.872-6.72-14.392-11.056-24-11.056s-18.128,4.336-24,11.056
		c-5.872-6.72-14.392-11.056-24-11.056c-5.856,0-11.272,1.696-16,4.448v-39.616c42.096-10.816,72-48.784,72-92.832
		c0-52.936-43.064-96-96-96s-96,43.064-96,96c0,37.432,22.304,71.68,56.08,87.176c-0.008,0.28-0.08,0.544-0.08,0.824v56H16V16h448
		v272h-60.448C398,278.48,387.792,272,376,272z M464,352h-56v-48h56V352z"/>
	<rect x="32" y="320" style="fill:#2A0E54;" width="16" height="16"/>
	<rect x="64" y="320" style="fill:#2A0E54;" width="16" height="16"/>
	<rect x="432" y="320" style="fill:#2A0E54;" width="16" height="16"/>
	<path style="fill:#2A0E54;" d="M211.64,182.712c1.32,0.848,2.84,1.288,4.36,1.288c1.104,0,2.208-0.224,3.248-0.688l72-32
		c2.896-1.288,4.752-4.144,4.752-7.312s-1.856-6.024-4.752-7.312l-72-32c-2.48-1.096-5.336-0.864-7.608,0.6
		c-2.272,1.48-3.64,4-3.64,6.712v64C208,178.712,209.368,181.232,211.64,182.712z M224,124.312L268.304,144L224,163.688V124.312z"/>
	<path style="fill:#2A0E54;" d="M437.656,138.344l-40-40l-11.312,11.312L420.688,144l-34.344,34.344l11.312,11.312l40-40
		C440.784,146.528,440.784,141.472,437.656,138.344z"/>
	<path style="fill:#2A0E54;" d="M82.344,98.344l-40,40c-3.128,3.128-3.128,8.184,0,11.312l40,40l11.312-11.312L59.312,144
		l34.344-34.344L82.344,98.344z"/>
</g>
<g>
</g>
<g>
</g>
<g>
</g>
<g>
</g>
<g>
</g>
<g>
</g>
<g>
</g>
<g>
</g>
<g>
</g>
<g>
</g>
<g>
</g>
<g>
</g>
<g>
</g>
<g>
</g>
<g>
</g>
</svg>
